<svg width="64" height="64" viewBox="0 0 64 64" xmlns="http://www.w3.org/2000/svg">
    <rect width="64" height="64" rx="16" fill="#136dec"/>
    <path d="M32 12C22.06 12 14 20.06 14 30C14 39.94 22.06 48 32 48C34.5 48 36.9 47.4 39 46.3L44 50V43.2C47.6 40.2 50 35.4 50 30C50 20.06 41.94 12 32 12ZM32 44C24.27 44 18 37.73 18 30C18 22.27 24.27 16 32 16C39.73 16 46 22.27 46 30C46 37.73 39.73 44 32 44Z" fill="white"/>
    <path d="M32 20C26.48 20 22 24.48 22 30H26C26 26.69 28.69 24 32 24C35.31 24 38 26.69 38 30C38 31.66 37.34 33.16 36.29 34.22L34.12 36.39C32.8 37.71 32 39.52 32 41.5V42H36V41.5C36 40.57 36.37 39.71 36.97 39.11L39.12 36.96C40.91 35.17 42 32.7 42 30C42 24.48 37.52 20 32 20Z" fill="white"/>
    <circle cx="34" cy="45" r="2.5" fill="white"/>
</svg>